name analog
datacolumns 19
datarows 63
range 0.5575 0.5885
endheader
time	ground_force_vx	ground_force_vy	ground_force_vz	ground_force_px	ground_force_py	ground_force_pz	l_ground_force_vx	l_ground_force_vy	l_ground_force_vz	l_ground_force_px	l_ground_force_py	l_ground_force_pz	ground_torque_x	ground_torque_y	ground_torque_z	l_ground_torque_x	l_ground_torque_y	l_ground_torque_z
0.5575	-0.0	-0.0	-0.0	-0.0	-0.0	-0.0	3.703932762145996	2.0978963375091557	-877.849365234375	-0.0	-0.0	-0.0	-0.0	-0.0	-0.0	245845.125	8120.8935546875	-159.81292724609375
0.558	-0.0	-0.0	-0.0	-0.0	-0.0	-0.0	5.211974620819092	1.546059250831604	-876.4603881835938	-0.0	-0.0	-0.0	-0.0	-0.0	-0.0	245511.15625	7564.06201171875	71.06005859375
0.5585	-0.0	-0.0	-0.0	-0.0	-0.0	-0.0	5.632828712463379	1.3918287754058838	-873.0572509765625	-0.0	-0.0	-0.0	-0.0	-0.0	-0.0	245600.0625	6917.32861328125	71.05248260498047
0.559	-0.0	-0.0	-0.0	-0.0	-0.0	-0.0	5.1669921875	1.3691498041152954	-872.1793823242188	-0.0	-0.0	-0.0	-0.0	-0.0	-0.0	245996.375	6586.13623046875	-322.391845703125
0.5595	-0.0	-0.0	-0.0	-0.0	-0.0	-0.0	5.167362213134766	2.451131820678711	-873.57861328125	-0.0	-0.0	-0.0	-0.0	-0.0	-0.0	246746.328125	6208.5009765625	-596.4405517578125
0.56	-0.0	-0.0	-0.0	-0.0	-0.0	-0.0	4.679460048675537	2.605556964874268	-872.1807861328125	-0.0	-0.0	-0.0	-0.0	-0.0	-0.0	247429.859375	5410.36279296875	-826.5580444335938
0.5605	-0.0	-0.0	-0.0	-0.0	-0.0	-0.0	4.435539245605469	4.283050060272217	-874.53857421875	-0.0	-0.0	-0.0	-0.0	-0.0	-0.0	248807.671875	4888.48876953125	-1078.4332275390625
0.561	-0.0	-0.0	-0.0	-0.0	-0.0	-0.0	4.257044792175293	5.961980819702148	-877.1588134765625	-0.0	-0.0	-0.0	-0.0	-0.0	-0.0	250366.734375	4631.96484375	-1204.4022216796875
0.5615	-0.0	-0.0	-0.0	-0.0	-0.0	-0.0	4.76715898513794	7.793764114379883	-879.9468994140625	-0.0	-0.0	-0.0	-0.0	-0.0	-0.0	251406.15625	3845.870849609375	-1070.0213623046875
0.562	-0.0	-0.0	-0.0	-0.0	-0.0	-0.0	6.031330108642578	8.744845390319824	-881.6961059570312	-0.0	-0.0	-0.0	-0.0	-0.0	-0.0	252113.5625	3291.552734375	-705.42626953125
0.5625	-0.0	-0.0	-0.0	-0.0	-0.0	-0.0	6.543361663818359	10.20177936553955	-881.519287109375	-0.0	-0.0	-0.0	-0.0	-0.0	-0.0	252411.96875	3028.959716796875	-422.673828125
0.5630000000000001	-0.0	-0.0	-0.0	-0.0	-0.0	-0.0	5.790302276611328	11.082073211669922	-878.4654541015625	-0.0	-0.0	-0.0	-0.0	-0.0	-0.0	251899.84375	2565.55126953125	-468.2063293457031
0.5635	-0.0	-0.0	-0.0	-0.0	-0.0	-0.0	5.390458106994629	10.95019245147705	-875.4188232421875	-0.0	-0.0	-0.0	-0.0	-0.0	-0.0	251047.953125	2310.06005859375	-497.1038208007813
0.5640000000000001	-0.0	-0.0	-0.0	-0.0	-0.0	-0.0	5.588779449462891	11.325759887695312	-870.7919921875	-0.0	-0.0	-0.0	-0.0	-0.0	-0.0	249735.9375	2245.640869140625	-460.1896057128906
0.5645	-0.0	-0.0	-0.0	-0.0	-0.0	-0.0	6.0323333740234375	11.746784210205078	-863.3624267578125	-0.0	-0.0	-0.0	-0.0	-0.0	-0.0	247943.484375	2253.29296875	-194.26873779296875
0.5650000000000001	-0.0	-0.0	-0.0	-0.0	-0.0	-0.0	6.762392520904541	11.746784210205078	-855.5205688476562	-0.0	-0.0	-0.0	-0.0	-0.0	-0.0	245923.625	1598.255615234375	162.12107849121094
0.5655	-0.0	-0.0	-0.0	-0.0	-0.0	-0.0	7.588831901550293	11.94887638092041	-846.1055908203125	-0.0	-0.0	-0.0	-0.0	-0.0	-0.0	243595.359375	1768.012451171875	520.3631591796875
0.5660000000000001	-0.0	-0.0	-0.0	-0.0	-0.0	-0.0	7.694942474365234	12.10007095336914	-838.8424682617188	-0.0	-0.0	-0.0	-0.0	-0.0	-0.0	241239.375	1640.6219482421875	653.498779296875
0.5665	-0.0	-0.0	-0.0	-0.0	-0.0	-0.0	7.362995147705078	11.25948429107666	-830.824462890625	-0.0	-0.0	-0.0	-0.0	-0.0	-0.0	239316.890625	1492.7716064453125	423.39300537109375
0.5670000000000001	-0.0	-0.0	-0.0	-0.0	-0.0	-0.0	6.626955986022949	9.71538543701172	-824.7867431640625	-0.0	-0.0	-0.0	-0.0	-0.0	-0.0	237200.09375	1493.7939453125	423.5942993164063
0.5675	-0.0	-0.0	-0.0	-0.0	-0.0	-0.0	6.364104747772217	8.766817092895508	-817.2871704101562	-0.0	-0.0	-0.0	-0.0	-0.0	-0.0	235462.15625	1429.73779296875	457.0370788574219
0.5680000000000001	-0.0	-0.0	-0.0	-0.0	-0.0	-0.0	6.803708076477051	7.219333171844482	-812.7185668945312	-0.0	-0.0	-0.0	-0.0	-0.0	-0.0	233865.1875	1075.8402099609375	503.2211608886719
0.5685	-0.0	-0.0	-0.0	-0.0	-0.0	-0.0	6.877140522003174	5.875437736511231	-809.0432739257812	-0.0	-0.0	-0.0	-0.0	-0.0	-0.0	232960.953125	965.2409057617188	682.2709350585938
0.5690000000000001	-0.0	-0.0	-0.0	-0.0	-0.0	-0.0	7.624851703643799	4.327762603759766	-805.658935546875	-0.0	-0.0	-0.0	-0.0	-0.0	-0.0	231772.5	797.9725341796875	960.6853637695312
0.5695	-0.0	-0.0	-0.0	-0.0	-0.0	-0.0	7.983970642089844	2.607767343521118	-801.652099609375	-0.0	-0.0	-0.0	-0.0	-0.0	-0.0	230453.859375	372.5320739746094	1177.30517578125
0.5700000000000001	-0.0	-0.0	-0.0	-0.0	-0.0	-0.0	9.21644115447998	1.152901530265808	-796.0843505859375	-0.0	-0.0	-0.0	-0.0	-0.0	-0.0	229032.890625	-41.29451370239258	1585.2686767578125
0.5705	-0.0	-0.0	-0.0	-0.0	-0.0	-0.0	11.078863143920898	0.8832168579101562	-793.5294189453125	-0.0	-0.0	-0.0	-0.0	-0.0	-0.0	227930.875	-178.03053283691406	2120.414306640625
0.5710000000000001	-0.0	-0.0	-0.0	-0.0	-0.0	-0.0	13.212632179260254	0.3532867431640625	-789.9243774414062	-0.0	-0.0	-0.0	-0.0	-0.0	-0.0	226831.5625	-926.8082885742188	2708.914306640625
0.5715	-0.0	-0.0	-0.0	-0.0	-0.0	-0.0	14.744086265563965	-0.1063384413719177	-785.7550048828125	-0.0	-0.0	-0.0	-0.0	-0.0	-0.0	225541.75	-997.427001953125	3220.2265625
0.5720000000000001	-0.0	-0.0	-0.0	-0.0	-0.0	-0.0	15.435676574707031	-0.2414554357528686	-781.4943237304688	-0.0	-0.0	-0.0	-0.0	-0.0	-0.0	224622.34375	-1748.1929931640625	3503.377197265625
0.5725	-0.0	-0.0	-0.0	-0.0	-0.0	-0.0	16.742666244506836	-0.4651767015457153	-780.0743408203125	-0.0	-0.0	-0.0	-0.0	-0.0	-0.0	224017.796875	-1769.150390625	3773.205322265625
0.5730000000000001	-0.0	-0.0	-0.0	-0.0	-0.0	-0.0	17.469879150390625	0.2946925759315491	-779.2821655273438	-0.0	-0.0	-0.0	-0.0	-0.0	-0.0	223724.28125	-1775.7635498046875	4027.129150390625
0.5735	-0.0	-0.0	-0.0	-0.0	-0.0	-0.0	17.056259155273438	0.2003278583288192	-779.4254150390625	-0.0	-0.0	-0.0	-0.0	-0.0	-0.0	223214.3125	-1953.387939453125	4046.49072265625
0.5740000000000001	-0.0	-0.0	-0.0	-0.0	-0.0	-0.0	16.766338348388672	-0.1291902214288711	-778.8895263671875	-0.0	-0.0	-0.0	-0.0	-0.0	-0.0	222683.1875	-1454.5960693359375	4072.319091796875
0.5745	-0.0	-0.0	-0.0	-0.0	-0.0	-0.0	15.725703239440918	-0.3702407777309418	-777.2655029296875	-0.0	-0.0	-0.0	-0.0	-0.0	-0.0	222144.609375	-1159.222412109375	3824.067138671875
0.5750000000000001	-0.0	-0.0	-0.0	-0.0	-0.0	-0.0	13.790953636169434	-0.2411056160926818	-777.8816528320312	-0.0	-0.0	-0.0	-0.0	-0.0	-0.0	221442.125	-673.3455810546875	3405.08447265625
0.5755	-0.0	-0.0	-0.0	-0.0	-0.0	-0.0	11.611732482910156	0.1527427583932876	-777.0225830078125	-0.0	-0.0	-0.0	-0.0	-0.0	-0.0	220939.71875	-456.0870971679688	2777.525390625
0.5760000000000001	-0.0	-0.0	-0.0	-0.0	-0.0	-0.0	10.362693786621094	0.9955137968063354	-776.51318359375	-0.0	-0.0	-0.0	-0.0	-0.0	-0.0	220616.3125	-250.26223754882807	2221.412109375
0.5765	-0.0	-0.0	-0.0	-0.0	-0.0	-0.0	9.895176887512209	2.0554325580596924	-777.5916137695312	-0.0	-0.0	-0.0	-0.0	-0.0	-0.0	220612.421875	73.11617279052734	2156.89013671875
0.577	-0.0	-0.0	-0.0	-0.0	-0.0	-0.0	9.556439399719238	3.42047119140625	-779.0208740234375	-0.0	-0.0	-0.0	-0.0	-0.0	-0.0	220760.171875	329.69927978515625	1987.0701904296875
0.5775	-0.0	-0.0	-0.0	-0.0	-0.0	-0.0	9.693731307983398	4.833543300628662	-779.6255493164062	-0.0	-0.0	-0.0	-0.0	-0.0	-0.0	220976.859375	258.21453857421875	1909.39990234375
0.578	-0.0	-0.0	-0.0	-0.0	-0.0	-0.0	9.354748725891112	6.158327102661133	-782.8312377929688	-0.0	-0.0	-0.0	-0.0	-0.0	-0.0	220942.265625	214.0606384277344	1895.755615234375
0.5785	-0.0	-0.0	-0.0	-0.0	-0.0	-0.0	9.726927757263184	6.961852550506592	-785.2691650390625	-0.0	-0.0	-0.0	-0.0	-0.0	-0.0	221444.890625	-29.1712589263916	1755.9447021484375
0.579	-0.0	-0.0	-0.0	-0.0	-0.0	-0.0	10.896008491516112	7.988626003265381	-787.999755859375	-0.0	-0.0	-0.0	-0.0	-0.0	-0.0	221683.71875	-418.9613037109375	2026.9332275390625
0.5795	-0.0	-0.0	-0.0	-0.0	-0.0	-0.0	12.306326866149902	7.875856399536133	-793.079833984375	-0.0	-0.0	-0.0	-0.0	-0.0	-0.0	222330.890625	-756.9205932617188	2364.439697265625
0.58	-0.0	-0.0	-0.0	-0.0	-0.0	-0.0	13.380260467529297	7.477338790893555	-797.7147827148438	-0.0	-0.0	-0.0	-0.0	-0.0	-0.0	223339.578125	-621.9425048828125	2481.739013671875
0.5805	-0.0	-0.0	-0.0	-0.0	-0.0	-0.0	13.370738983154297	6.33467960357666	-801.5933227539062	-0.0	-0.0	-0.0	-0.0	-0.0	-0.0	224113.390625	-679.5457763671875	2588.663818359375
0.581	-0.0	-0.0	-0.0	-0.0	-0.0	-0.0	13.281970024108888	4.563324451446533	-805.7059936523438	-0.0	-0.0	-0.0	-0.0	-0.0	-0.0	224346.21875	-689.7359008789062	2574.892578125
0.5815	-0.0	-0.0	-0.0	-0.0	-0.0	-0.0	13.888328552246094	2.44405198097229	-808.188720703125	-0.0	-0.0	-0.0	-0.0	-0.0	-0.0	224369.8125	-539.231689453125	2770.711669921875
0.582	-0.0	-0.0	-0.0	-0.0	-0.0	-0.0	15.233489990234377	0.6079490184783936	-808.6351318359375	-0.0	-0.0	-0.0	-0.0	-0.0	-0.0	223848.359375	-639.253173828125	3117.431640625
0.5825	-0.0	-0.0	-0.0	-0.0	-0.0	-0.0	16.489654541015625	-0.8090962171554565	-808.7743530273438	-0.0	-0.0	-0.0	-0.0	-0.0	-0.0	223691.890625	-627.9295654296875	3494.041259765625
0.583	-0.0	-0.0	-0.0	-0.0	-0.0	-0.0	16.056652069091797	-2.1089532375335693	-808.9417724609375	-0.0	-0.0	-0.0	-0.0	-0.0	-0.0	222874.265625	-109.83165740966795	3660.648193359375
0.5835	-0.0	-0.0	-0.0	-0.0	-0.0	-0.0	14.698209762573242	-3.648847579956055	-808.4276733398438	-0.0	-0.0	-0.0	-0.0	-0.0	-0.0	222311.71875	180.07797241210938	3306.879638671875
0.584	-0.0	-0.0	-0.0	-0.0	-0.0	-0.0	12.951774597167969	-4.769371032714844	-807.2922973632812	-0.0	-0.0	-0.0	-0.0	-0.0	-0.0	221721.078125	946.5956420898438	2813.149169921875
0.5845	-0.0	-0.0	-0.0	-0.0	-0.0	-0.0	11.277853965759276	-5.502805709838867	-807.0867309570312	-0.0	-0.0	-0.0	-0.0	-0.0	-0.0	221309.5625	1519.0885009765625	2316.544677734375
0.585	-0.0	-0.0	-0.0	-0.0	-0.0	-0.0	9.74481964111328	-4.654433250427246	-806.0922241210938	-0.0	-0.0	-0.0	-0.0	-0.0	-0.0	221771.375	1998.1497802734373	1793.9886474609375
0.5855	-0.0	-0.0	-0.0	-0.0	-0.0	-0.0	8.288434028625488	-3.924317598342896	-811.8809814453125	-0.0	-0.0	-0.0	-0.0	-0.0	-0.0	222537.046875	2842.041748046875	1301.692626953125
0.586	-0.0	-0.0	-0.0	-0.0	-0.0	-0.0	6.298465728759766	-2.624529838562012	-816.7168579101562	-0.0	-0.0	-0.0	-0.0	-0.0	-0.0	224034.125	3447.26513671875	499.39642333984375
0.5865	-0.0	-0.0	-0.0	-0.0	-0.0	-0.0	4.14411211013794	-1.41314697265625	-822.751220703125	-0.0	-0.0	-0.0	-0.0	-0.0	-0.0	225942.171875	3820.295654296875	-209.34909057617188
0.587	-0.0	-0.0	-0.0	-0.0	-0.0	-0.0	2.5220158100128174	-0.2018970251083374	-826.791015625	-0.0	-0.0	-0.0	-0.0	-0.0	-0.0	227745.3125	4047.577880859375	-735.595458984375
0.5875	-0.0	-0.0	-0.0	-0.0	-0.0	-0.0	2.560121297836304	1.3119670152664185	-833.7232055664062	-0.0	-0.0	-0.0	-0.0	-0.0	-0.0	228986.84375	4018.179931640625	-1044.5831298828125
0.588	-0.0	-0.0	-0.0	-0.0	-0.0	-0.0	2.724552869796753	2.561328887939453	-836.5151977539062	-0.0	-0.0	-0.0	-0.0	-0.0	-0.0	230438.09375	4011.27197265625	-1124.645263671875
0.5885	-0.0	-0.0	-0.0	-0.0	-0.0	-0.0	2.344111442565918	3.8995440006256095	-842.9472045898438	-0.0	-0.0	-0.0	-0.0	-0.0	-0.0	232038.046875	3817.313720703125	-1213.5679931640625
